# Blender v2.76 (sub 0) OBJ File: 'october.blend'
# www.blender.org
mtllib october-painting2.mtl
g october-painting2
v -0.190000 -0.192217 0.006541
v 0.190000 -0.192217 0.006541
v -0.190000 0.187783 0.006541
v 0.190000 0.187783 0.006541
v -0.190000 -0.192217 0.009569
v 0.190000 -0.192217 0.009569
v -0.190000 0.187783 0.009569
v 0.190000 0.187783 0.009569
v -0.201600 -0.203817 0.009569
v 0.201600 -0.203817 0.009569
v -0.201600 0.199383 0.009569
v 0.201600 0.199383 0.009569
v -0.201600 -0.203817 -0.000431
v 0.201600 -0.203817 -0.000431
v -0.201600 0.199383 -0.000431
v 0.201600 0.199383 -0.000431
v -0.190000 -0.192217 0.006541
v 0.190000 -0.192217 0.006541
v -0.190000 0.187783 0.006541
v 0.190000 0.187783 0.006541
v -0.190000 -0.192217 0.009569
v 0.190000 -0.192217 0.009569
v -0.190000 0.187783 0.009569
v 0.190000 0.187783 0.009569
v -0.201600 -0.203817 0.009569
v 0.201600 -0.203817 0.009569
v -0.201600 0.199383 0.009569
v 0.201600 0.199383 0.009569
v -0.201600 -0.203817 -0.000431
v 0.201600 -0.203817 -0.000431
v -0.201600 0.199383 -0.000431
v 0.201600 0.199383 -0.000431
v -0.190000 -0.192217 0.009569
v 0.190000 -0.192217 0.009569
v -0.201600 0.199383 0.009569
v 0.201600 0.199383 0.009569
v -0.201600 0.199383 -0.000431
v 0.201600 0.199383 -0.000431
v -0.190000 -0.192217 0.006541
v 0.190000 -0.192217 0.006541
v -0.190000 0.187783 0.009569
v 0.190000 0.187783 0.009569
v -0.201600 -0.203817 0.009569
v 0.201600 -0.203817 0.009569
v -0.201600 -0.203817 -0.000431
v 0.201600 -0.203817 -0.000431
v -0.190000 0.187783 0.006541
v 0.190000 0.187783 0.006541
vt 0.960704 0.033884
vt 0.033400 0.033892
vt 0.033400 0.010894
vt 0.960704 0.010885
vt 0.060067 0.060573
vt 0.934026 0.060562
vt 0.923719 0.070869
vt 0.070374 0.070880
vt 0.960704 0.961179
vt 0.983703 0.033884
vt 0.983703 0.961179
vt 0.033399 0.961187
vt 0.010400 0.961187
vt 0.010401 0.033892
vt 0.960704 0.984178
vt 0.033399 0.984186
vt 0.906589 0.907026
vt 0.087497 0.907026
vt 0.087497 0.087935
vt 0.906589 0.087935
vt 0.934027 0.934509
vt 0.923720 0.924202
vt 0.060076 0.934510
vt 0.070383 0.924203
vt 0.011379 0.013268
vt 0.987356 0.013268
vt 0.987356 0.989244
vt 0.011379 0.989244
vn 0.000000 -1.000000 0.000000
vn 0.000000 1.000000 0.000000
vn 1.000000 0.000000 0.000000
vn -1.000000 0.000000 0.000000
vn 0.000000 0.000000 -1.000000
vn 0.000000 0.000000 1.000000
usemtl beige
s 1
f 44/1/1 43/2/1 45/3/1 46/4/1
f 33/5/2 34/6/2 40/7/2 39/8/2
f 12/9/3 10/1/3 14/10/3 16/11/3
f 9/2/4 11/12/4 15/13/4 13/14/4
f 35/12/2 36/9/2 38/15/2 37/16/2
f 31/17/5 32/18/5 30/19/5 29/20/5
f 6/6/4 8/21/4 20/22/4 18/7/4
f 42/21/1 41/23/1 47/24/1 48/22/1
f 7/23/3 5/5/3 17/8/3 19/24/3
f 24/21/6 28/9/6 27/12/6 23/23/6
f 22/6/6 26/1/6 28/9/6 24/21/6
f 21/5/6 25/2/6 26/1/6 22/6/6
f 23/23/6 27/12/6 25/2/6 21/5/6
usemtl picture04
f 1/25/6 2/26/6 4/27/6 3/28/6
